<svg xmlns="http://www.w3.org/2000/svg" viewBox="0 0 333333 333333" shape-rendering="geometricPrecision" text-rendering="geometricPrecision" image-rendering="optimizeQuality" fill-rule="evenodd" clip-rule="evenodd"><path d="M124957 228249h83418v90302h94657V141086H32280v177465h92676v-90302zm-21070-74565h125557c6077 0 11049 4976 11049 11049v37990c0 6073-4976 11049-11049 11049H103887c-6073 0-11049-4972-11049-11049v-37990c0-6077 4972-11049 11049-11049zm35294 22744h-8938v-2737c0-1279-117-2098-343-2449s-600-523-1131-523c-577 0-1014 234-1310 710-297 468-444 1178-444 2137 0 1232 172 2160 507 2784 328 616 1232 1372 2722 2261 4267 2551 6957 4648 8065 6279 1115 1630 1669 4258 1669 7877 0 2636-312 4578-928 5834-616 1248-1802 2293-3572 3135-1763 850-3814 1271-6161 1271-2573 0-4765-491-6590-1466-1817-975-3003-2215-3572-3720-561-1513-843-3658-843-6427v-2426h8938v4500c0 1388 125 2277 374 2675s694 593 1334 593c639 0 1115-250 1427-757 312-499 468-1248 468-2230 0-2176-296-3604-889-4266-617-671-2114-1794-4500-3369-2386-1583-3962-2738-4742-3456-772-717-1419-1708-1926-2971-507-1264-764-2878-764-4843 0-2831 359-4906 1084-6217 726-1310 1887-2332 3502-3073s3557-1107 5842-1107c2496 0 4617 406 6380 1209 1755 811 2917 1825 3487 3057 569 1224 858 3307 858 6247v1466zm25933-11231v37016h-9640v-15537h-2807v15537h-9640v-37016h9640v13244h2807v-13244h9640zm25839 21698c0 3720-85 6348-265 7893-172 1552-717 2964-1638 4243-920 1279-2169 2262-3736 2948-1568 687-3393 1030-5475 1030-1981 0-3751-328-5327-974-1576-648-2847-1615-3798-2909-959-1294-1529-2706-1716-4227-179-1529-273-4196-273-8002v-6333c0-3721 86-6349 265-7894 171-1552 717-2963 1638-4242 920-1279 2168-2262 3736-2948 1567-686 3393-1030 5475-1030 1981 0 3752 327 5327 975 1575 647 2846 1615 3798 2909 959 1294 1529 2706 1716 4227 180 1528 273 4196 273 8002v6333zm-9640-12159c0-1716-93-2816-281-3299-187-476-570-718-1147-718-491 0-865 195-1131 585-257 382-390 1529-390 3432v17276c0 2145 86 3471 257 3970 171 507 569 757 1193 757 639 0 1053-289 1232-866 180-577 265-1957 265-4134v-17002zm13259-9539h9694c2621 0 4633 203 6045 617 1404 413 2465 1006 3174 1778 710 780 1185 1724 1443 2823 250 1107 374 2815 374 5132v3221c0 2356-242 4079-733 5156-484 1084-1381 1919-2675 2496-1303 577-3003 866-5102 866h-2581v14928h-9640v-37016zm9640 6318v9430c273 15 507 23 702 23 881 0 1490-218 1833-655 335-429 507-1333 507-2706v-3049c0-1264-195-2091-593-2472-390-382-1209-570-2449-570zM19145 147370H-1V96337l3899-1744L160366 2844l2673-1196 2638 1170 163730 94390 3925 1741v48421h-17165v184318H19144V147370z"/></svg>